<?xml version="1.0" encoding="UTF-8" standalone="no"?>
<svg
   width="800"
   height="1072"
   version="1.1"
   id="svg1"
   sodipodi:docname="outline-nh.svg"
   inkscape:version="1.4.2 (f4327f4, 2025-05-13)"
   xmlns:inkscape="http://www.inkscape.org/namespaces/inkscape"
   xmlns:sodipodi="http://sodipodi.sourceforge.net/DTD/sodipodi-0.dtd"
   xmlns="http://www.w3.org/2000/svg"
   xmlns:svg="http://www.w3.org/2000/svg">
  <defs
     id="defs1" />
  <sodipodi:namedview
     id="namedview1"
     pagecolor="#ffffff"
     bordercolor="#000000"
     borderopacity="0.25"
     inkscape:showpageshadow="2"
     inkscape:pageopacity="0.0"
     inkscape:pagecheckerboard="0"
     inkscape:deskcolor="#d1d1d1"
     inkscape:zoom="0.50988204"
     inkscape:cx="396.17007"
     inkscape:cy="636.42172"
     inkscape:window-width="1920"
     inkscape:window-height="991"
     inkscape:window-x="-9"
     inkscape:window-y="-9"
     inkscape:window-maximized="1"
     inkscape:current-layer="svg1" />
  <g
     transform="translate(0, 0)"
     id="single_state_map"
     style="stroke:#000000;stroke-opacity:1;fill:#00ffff;fill-opacity:1;stroke-width:5;stroke-dasharray:none">
    <path
       d="m 201.15517,979.55365 0.009,-0.90162 -0.74271,-1.65568 -2.01739,-3.21912 -1.54984,-1.89424 -0.48824,-1.93706 -0.35908,-2.80663 -0.49563,-1.42618 -0.51396,-0.75439 -1.63259,-0.97461 -0.44982,-0.57971 -0.40401,-0.96622 -0.99155,-1.24205 -1.2475,-0.33055 -0.77019,0.14816 -0.24737,0.37726 -0.13684,1.17843 -0.42588,0.56242 -2.156,1.30556 -0.85294,0.26649 -0.66025,-0.0282 -0.87984,-0.85626 -0.19181,-1.09544 0.56006,-1.1136 1.38374,-0.71867 0.52666,-0.55925 0.0958,-0.91601 -0.23939,-1.22166 -0.85354,-1.68925 -1.20937,-1.79045 -0.74359,-0.84211 -6.27915,-5.71187 -0.94102,-1.47038 -0.98978,-6.22728 -0.3845,-3.49184 0.009,-2.00869 -0.33929,-1.78716 -1.44108,-1.88967 -1.12928,-2.54371 0.89107,-2.82983 -0.26599,-2.29546 -0.28963,-0.21008 -0.0301,-0.28146 0.32008,-1.65654 -0.0839,-1.76232 0.76281,-3.84769 0.23909,-0.26742 1.63555,-0.60867 1.70914,-0.90316 1.01106,-1.00484 1.3329,-1.69675 0.38658,-0.75603 -0.0352,-3.71755 0.40489,-1.7803 0.30353,-0.46123 1.15854,-0.66342 0.24855,-0.48911 0.0556,-1.18082 -0.84378,-4.06955 0.22196,-2.87932 -0.0822,-1.68907 -0.2385,-1.31089 -0.33072,-0.87693 -0.35849,-0.323 -0.5704,-0.15746 -0.65257,-0.84023 -0.19299,-0.52612 0.12915,-0.90407 0.5707,-1.13549 4.06789,-3.32157 3.10943,-0.40427 1.08612,-0.66398 3.4369,-0.74032 1.69199,-1.67259 1.52679,-0.88702 0.72734,0.15672 0.74566,0.74767 0.8556,-0.12077 2.31767,-2.59534 1.28798,-1.79206 0.009,-0.46177 -0.71788,-0.83145 -0.38687,-1.3943 0.18353,-1.6259 0.5243,-1.3581 0.88339,-1.26765 0.89106,-0.49544 1.51881,0.2946 0.91117,-0.23924 1.10445,-1.31219 0.35909,-0.73918 -0.0186,-1.09931 -0.23939,-0.64708 -2.46751,-2.08765 -1.19725,-0.62816 -0.58016,-0.85009 -1.00456,-2.49506 -0.17526,-1.20113 0.61622,-3.00409 0.19299,-1.90453 -0.58991,-1.43274 -1.07815,-1.33091 -0.27663,-0.68429 -0.15693,-1.39573 0.25771,-0.84168 0.79177,-1.08198 2.69005,-2.4606 2.81004,-3.1818 1.57585,-2.30255 1.0876,-1.89651 0.25831,-0.7308 0.0369,-1.2488 -1.18897,-3.33072 -1.13401,-2.42407 0.18442,-1.12893 0.5438,-1.01807 1.69702,-1.52698 0.50716,-1.10117 0.13831,-0.58299 -0.0919,-2.25841 -0.876,-1.50869 -1.48689,-1.71166 -0.58104,-1.04641 0.0553,-0.38877 0.58104,-0.12959 0.0461,-0.29604 -0.0831,-1.45392 -0.29525,-0.33291 -0.68271,-0.30578 -1.20848,0.0741 -1.0885,-0.70351 -1.44935,-3.09215 -0.0739,-0.78383 0.17822,-0.41927 1.10415,-0.9921 0.29525,-0.61131 0.0736,-0.67616 -0.16166,-2.53585 0.0686,-3.54957 -0.20334,-0.78737 2.26151,-2.37161 0.44303,-0.7133 -0.10167,-1.01002 -1.68047,-2.81667 -0.24974,-1.34379 3.34291,-3.46624 0.36944,-0.69533 -0.25861,-2.53945 -0.58192,-2.53078 0.0186,-1.53904 0.84053,-2.52147 0.94279,-2.0954 0.23112,-1.2149 -0.15723,-0.62106 -0.72054,-1.36347 -0.67473,-2.40217 0.0721,-3.51584 0.68419,-1.84597 0.34195,-0.41758 4.03064,-2.01254 1.81258,-3.21942 2.24851,-4.67565 1.82528,-8.32524 1.83357,-3.89863 -0.10138,-0.65924 -0.53611,-0.99398 -1.45202,-1.34702 -1.82174,-2.96324 -0.44361,-1.10551 -0.0461,-0.52007 0.38894,-1.10518 2.38091,-4.62441 0.50007,-0.73397 1.14848,-1.1514 1.32493,-1.85747 0.24146,-0.78936 -0.61089,-0.38169 -2.44445,0.0732 -1.03677,-0.16788 -2.7864,-1.88737 -0.38865,-0.62279 -0.12028,-0.6598 -0.25979,-4.32389 0.17644,-1.49637 0.65818,-1.66358 2.3351,-2.31401 0.42618,-0.79022 1.08761,-7.75394 0.047,-1.72994 1.19873,-6.39883 0.0759,-3.07975 0.49268,-2.49315 0.82634,-1.88845 0.1859,-0.78164 -0.60912,-5.64033 0.0378,-0.93088 0.28786,-0.57663 2.07916,-2.20524 0.45514,-0.73512 0.36293,-1.66622 0.38273,-3.43544 0.0195,-1.26652 -0.15723,-0.717 -1.14642,-2.79692 -1.41359,-1.48312 -1.99464,-1.69634 -0.61207,-1.12755 -0.0553,-1.062 0.8092,-2.90381 -0.0366,-1.3532 0.51159,-1.43479 1.03972,0.0567 0.47376,-0.40966 1.71032,-2.82259 0.86506,-2.31978 -0.23762,-5.72294 -0.47169,-3.0767 0.0467,-0.68032 0.94131,-4.0554 1.86607,-2.18257 2.72197,-1.72702 4.13468,-1.66226 5.18504,-4.74913 0.8163,-0.34159 0.32687,-0.2465 0.25092,-0.76483 -0.16757,-1.69789 -0.38126,-0.63429 -0.93924,-0.78371 -0.60439,-1.71688 0.10167,-1.93133 0.60321,-2.37611 1.00308,-0.78432 0.51129,-1.44664 -0.0372,-0.26133 -0.6233,-0.68151 -0.0559,-0.73706 0.15782,-0.37364 0.51159,-0.49453 1.44167,-0.8686 2.14861,-0.92418 0.34402,-0.67223 0.065,-1.53075 -0.35348,-1.16691 0.30708,-2.75434 0.33485,-0.93384 0.60468,-0.5229 1.49842,-2.78259 0.42824,-1.21429 0.27013,-1.85832 0.0934,-1.64393 -0.37209,-1.25171 -0.49326,-0.78465 0.2051,-5.19446 0.72675,-2.84027 0.93156,-1.56989 1.42482,-0.99963 0.79177,-0.95266 1.55604,-2.42023 0.63395,-1.27093 1.46295,-1.74744 1.11804,-0.99012 1.44581,-2.89738 2.0496,-0.008 5.66767,-3.65493 3.65146,-2.12449 2.68001,-3.90991 0.46578,-0.81389 0.5772,-1.55298 0.59611,-0.86062 0.47524,-0.31839 1.67751,-0.48661 0.96939,-0.64581 0.82014,-0.81405 -0.22491,-4.50906 0.0653,-0.89855 0.36352,-0.66442 2.07887,-1.60034 0.43859,-0.60839 0.69985,-1.31222 0.71817,-2.50182 1.74579,-1.59335 0.44745,-1.42473 -0.2515,-1.78031 -0.66203,-1.36512 -0.63424,-2.16927 0.0931,-0.7107 0.59612,-1.65622 0.85737,-1.54365 0.33515,-1.36554 -0.19536,-4.53879 -1.33438,-3.48468 -0.15871,-1.03037 0.92447,-2.97866 0.54143,-0.79607 1.0551,-0.3468 1.36305,-0.084 2.15689,-1.13309 -0.68093,-1.75261 -0.62774,-1.11682 -0.49415,-1.44366 0.23377,-1.65901 0.33604,-0.67455 0.30855,-0.42114 0.99894,0.11277 1.89297,-0.45518 0.47376,-0.44699 0.18649,-1.82454 0.84555,-1.78735 1.3004,-1.88018 1.85691,-1.47012 2.93299,-1.94279 4.17162,-3.66449 0.53553,-0.81896 0.34785,-0.96015 0.36825,-4.36256 3e-4,-0.5561 -0.65582,-3.26174 0.0848,-0.87635 0.25388,-0.60259 0.75984,-0.3288 1.29922,-0.0103 1.47684,-0.70441 0.42972,-0.47866 1.69407,-2.92468 -0.0786,-0.50048 -0.57306,-0.80966 0.10374,-0.66803 0.58518,-0.55637 2.42524,-0.64712 0.0423,-0.1663 -0.26303,-0.25828 -1.49457,-0.69355 -2.60405,-0.74655 -0.61178,0.17945 -1.15351,1.04877 -0.98358,-0.22749 -0.13388,-0.33631 0.007,-0.4706 0.47997,-1.36009 0.17378,-1.17618 0.21693,-3.81518 -0.31239,-1.26391 -1.15056,-1.61604 -0.0825,-1.0377 2.35432,-2.48763 1.55279,-0.94582 0.0559,-0.57277 -0.40342,-2.1219 -0.10374,-1.34293 0.83255,-0.9119 1.05746,-0.24452 1.07874,0.77958 0.5506,1.28624 0.0375,0.44134 0.59907,0.10314 0.34608,-0.3197 0.0745,-0.56338 -0.206,-0.6008 -1.38581,-1.61506 -0.14068,-1.23993 0.16817,-0.88283 0.30855,-0.55405 0.59877,-0.5261 0.45869,0.0658 1.65712,1.22934 0.72084,-0.34771 0.22431,-0.60994 -0.0564,-1.36216 0.14985,-0.64823 0.40223,-0.50765 1.28503,-0.77692 0.19033,-0.46658 -0.14245,-0.75024 -1.15588,-2.02144 -0.0585,-0.78034 0.1791,-0.59904 0.47789,-0.70103 0.73621,-0.53493 2.50001,-1.40091 1.26257,-0.25988 -0.16639,-0.69371 -1.68224,-0.98816 -0.22018,-0.32735 0.45454,-1.32298 0.64932,-0.12749 1.93641,0.17396 0.49947,-0.29816 0.24589,-0.38494 0.84497,-2.11731 1.53476,-1.81228 -0.083,-0.91442 -0.76074,-1.02469 -0.13536,-0.55248 0.12886,-0.2604 2.68296,-0.48626 0.34756,0.14358 0.54262,0.87994 0.71965,0.21432 0.94309,-0.21885 0.45868,-0.70345 -0.0328,-0.38383 -0.51129,-0.68127 -1.78628,-1.00426 -2.22309,-1.69141 -0.43622,-0.72375 0.32421,-0.71266 0.42824,-0.27363 1.83918,0.31931 1.09972,-0.19504 0.59139,-0.37115 0.41258,-0.53576 0.30027,-0.78966 0.25388,-1.89958 -0.0653,-0.87494 -0.51513,-0.63956 -1.15263,-0.60254 -0.82487,-0.10371 -0.36558,0.28192 -0.49682,0.79926 -0.10373,1.27908 -0.1593,0.26338 -0.42174,0.24445 -1.01225,-0.207 -0.78703,-0.79961 -0.41199,-0.92188 -0.72113,-3.72447 0.0461,-0.82737 0.68951,-3.18791 1.74726,-1.65505 1.32464,-0.71722 0.36056,-0.006 0.55828,0.4282 0.39397,-0.0329 1.12395,-2.81346 -0.15929,-0.40477 -1.06899,-0.51803 -1.21883,-1.39311 -0.26126,-5.81668 0.047,-0.40449 0.7761,-1.4331 -0.0251,-0.52481 -0.65611,-1.56298 -1.53861,-0.40539 -1.60422,-2.51404 -1.32256,-4.75563 -1.13549,-2.26957 -1.42689,-1.98743 0.46962,-2.95796 0.30028,-0.62165 1.03263,-0.81995 0.31919,-0.68765 0.2722,-1.62973 -0.1593,-0.88561 1.58767,-3.57125 0.16875,-0.81031 -0.36588,-1.59266 0.094,-1.37625 0.86477,-3.11033 0.81777,-2.02621 -0.16875,-1.12166 -0.48825,-1.16916 -1.14612,-1.18819 -1.7118,-3.75144 -0.4114,-3.03681 0.23526,-0.64959 0.16137,-0.0136 0.25505,-0.38258 0.146,-0.81511 -0.0783,-0.87458 -0.62242,0.0136 -1.09292,0.81514 -0.56745,-0.13785 -0.38716,-1.09169 0.69157,-2.58351 1.937,-3.71746 1.63289,-1.75923 2.08448,-0.6119 2.15689,-1.84983 0.58341,-0.56613 1.05361,-1.66996 0.27309,-0.77391 0.0662,-1.20798 -0.007,-3.74824 -0.43298,-0.65966 0.19802,-1.24586 1.20435,-0.83983 0.96879,0.14211 1.96626,0.69028 1.35567,-0.26809 1.34946,-0.37964 2.26476,-1.2063 4.14,-2.02316 0.53848,-0.59908 0.55178,-2.07627 1.03353,-0.5194 5.31597,0.39007 1.48186,-0.40826 3.82908,-0.0826 1.80697,0.7851 1.07992,0.0306 1.8575,-0.74667 1.18868,-1.83764 2.2621,-1.86422 3.11062,-0.72283 1.35271,0.32443 6.04005,3.01265 1.78273,1.17314 1.00219,0.30661 0.75719,-0.13802 2.3552,-1.3004 2.75241,-0.31571 2.45569,-1.37654 3.26814,-2.45159 2.07324,-0.77288 2.1894,-0.38563 1.32611,-0.66215 0.42825,-0.41582 0.2057,-0.74775 -0.0789,-0.46337 -0.74418,-2.1533 -0.34461,-1.60114 0.19713,-0.52795 0.78556,-0.66647 0.17644,-0.43164 -0.0559,-0.43 -0.83551,-0.85257 -0.15427,-0.35972 0.40933,-2.67455 0.3718,-0.35936 1.27143,-0.43876 1.58619,0.21793 0.92949,-0.38914 0.12324,-0.69269 -1.061,-1.83336 2.9e-4,-0.62287 0.33545,-0.61627 2.49115,-2.43669 0.95638,-0.4091 3.56871,0.19069 0.94988,-0.54892 0.76783,-0.81535 1.45201,-0.97133 0.86033,-0.47244 0.88989,-0.18203 1.73632,0.25898 0.5175,0.34088 1.42069,1.49836 1.33646,0.24654 0.5636,-0.12327 0.23525,-0.29329 0.70547,-1.82519 0.61621,-0.88658 0.56538,-0.47206 1.30128,-0.39428 1.5726,-0.15308 3.2841,0.37029 2.08241,-0.61523 2.54376,-1.69308 2.51627,-2.13721 1.49841,-0.89838 1.74372,-1.86351 0.23407,-1.76556 -0.22905,-0.78142 0.19802,-0.39569 0.55533,-0.28311 2.4944,-0.33982 1.40472,-0.75665 0.69779,-0.80386 0.83018,-1.92034 0.50479,-3.75544 1.17184,-2.68974 0.30382,-0.2559 2.14329,0.23686 0.65523,-0.49235 0.7232,-1.01538 -0.13093,-0.72429 -1.68579,-1.21506 -0.38805,-0.45846 -0.0928,-0.84778 0.14334,-0.45642 0.53287,-0.83498 0.82132,-0.62461 1.12277,-0.49165 1.92607,-2.50774 0.52843,-0.17937 0.99067,0.0481 0.58489,0.41674 0.19417,0.58697 0.86595,0.16445 0.72851,-1.25266 0.59405,-0.5402 0.49977,-0.0949 1.87819,0.66115 2.98146,-0.87284 0.46193,-0.79541 0.71906,-2.50612 0.13507,-1.75887 0.21397,-0.86187 0.70517,-0.0936 0.4909,0.38039 0.18708,0.28425 3e-4,0.35055 0.7832,-4.1e-4 0.32243,-0.63439 -0.22668,-1.16688 0.82103,-0.14254 1.15144,0.59629 0.35879,-0.0568 0.33013,-0.32197 0.16993,-0.55901 -0.20776,-0.35016 -1.61427,-1.40154 -0.51011,-0.77623 -0.29289,-1.36394 -0.28343,-0.51145 -1.53919,-1.28779 -0.54795,-0.81449 -0.0851,-0.80498 0.41494,-0.54965 1.69968,0.23628 0.40579,-0.0949 0.95343,-0.72045 1.66125,-2.45419 0.71759,-1.38349 0.4247,-1.09955 -0.0189,-0.6916 -0.6236,-1.19376 -3.80751,-2.89903 -2.57951,-2.31167 -0.38776,-0.82453 0.0943,-0.72998 0.4906,-1.54549 0.65434,-1.20916 0.54144,-0.54134 0.56774,-0.23895 4.33003,0.38123 1.74963,0.82881 1.83238,-0.18293 1.05007,-0.37375 0.3786,-0.60275 -0.12413,-1.33039 0.29938,-0.69365 0.43593,-0.13525 1.14317,0.51195 0.28343,-0.0473 0.59552,-0.43602 0.27397,-0.48333 -0.0662,-0.50241 -1.28503,-1.59321 -0.13447,-0.61491 0.0165,-0.50704 0.14748,-0.43776 0.60734,0.11536 0.55415,0.51493 0.53848,0.25601 0.74655,-0.30331 1.41832,-1.34607 0.70901,-0.93905 0.43534,-1.51717 -1.28562,-0.83498 -2.56149,-1.12927 -1.23508,-0.11496 -0.3449,-0.96828 0.0488,-1.08911 -0.46253,-1.23485 0.0689,-0.8717 0.28018,-0.70111 0.28372,-0.78749 -0.0662,-1.04365 -0.72793,-3.07434 0.23644,-2.96096 0.32333,-0.52654 0.22698,-0.01 0.21929,-0.51285 0.42381,-0.39575 -0.86063,-1.90992 -2.21363,-1.82036 -0.15132,-0.28492 v -0.92997 l 1.11628,-0.25628 0.24619,-0.69325 -0.16108,-1.07252 -0.94604,-2.43059 -0.77994,-1.08141 -0.51218,-0.43041 -0.44361,0.12588 -0.30501,0.84046 -0.46046,0.43788 -0.56981,0.0457 -0.88131,-0.0993 -0.27604,-0.58162 -0.0689,-0.48484 0.17791,-0.57957 -0.0896,-0.46408 -2.05463,-0.38639 -0.55651,-0.49651 -0.51129,-0.69055 v -0.67853 l 0.39367,-1.00223 0.1986,-0.75961 -0.31653,-0.95286 v -0.67862 l 0.3449,-0.38815 0.57661,-0.84862 0.16078,-0.53197 -0.30323,-0.54153 -1.28739,-0.0374 -0.78586,-0.25643 -1.85602,-1.47133 -0.0284,-0.2469 0.51099,-0.81717 0.13211,-0.90283 -0.65404,-1.3485 -0.47435,-2.39413 0.34993,-0.87432 0.73827,-0.44694 0.0662,-0.38916 -1.33586,-0.44612 -0.4451,-0.38003 -0.18028,-0.4083 v -0.38004 l 0.46312,-1.27362 -0.16107,-0.59879 -1.5256,-1.17766 -2.41816,-4.48454 -1.55486,-1.52942 -0.0476,-0.542 0.32067,-1.7209 -0.0665,-0.36109 -0.41702,-0.15184 -1.04209,0.62816 -0.1989,-0.009 -0.48942,-0.51458 -0.20363,-0.53249 -0.008,-1.97738 0.17112,-0.84625 -0.0358,-2.86224 -0.511,-1.35073 -1.24129,-0.60964 -0.25358,-0.68415 0.0248,-0.88642 0.1856,-0.32878 2.16664,-0.78326 1.76825,-0.31131 1.0944,-1.15746 -0.009,-0.81496 0.73886,-1.54967 1.04416,-0.54655 1.06958,-0.86585 0.9292,-1.80214 1.60658,-1.39677 0.0361,-0.35388 -0.22669,-0.4763 -0.0795,-0.6541 1.17716,-1.57764 2.534,-1.23129 1.29656,0.10535 0.31534,-0.24568 1.68195,-2.42031 0.45544,-1.22774 -0.42056,-1.29819 0.80595,-3.05271 0.38539,-0.73647 -0.0349,-0.73691 -1.07814,-0.65403 -0.67237,-1.32562 -0.10669,-1.03863 0.35052,-0.84203 1.89355,-2.39706 0.816,-0.35252 0.11408,0.32377 h 0.31299 l 0.42706,-0.3046 1.35478,-4.07933 1.17036,-0.68517 0.44154,-0.71269 0.063,-0.59726 -0.19181,-1.18415 -0.70398,-1.5356 -0.50657,-0.47062 -0.0162,-0.81121 0.35613,-0.72494 0.57454,-0.65701 1.56964,-1.42038 -0.009,-0.61954 -0.56952,-1.05735 0.0378,-0.85766 0.19004,-0.40988 1.07342,-1.47693 1.70973,-1.03875 1.63377,-0.44745 1.60599,-1.61016 0.0783,-1.405064 0.16167,-0.371612 0.50361,-0.533445 1.25459,-0.714477 2.9853,-3.935635 0.17141,-0.552751 -0.7028,-0.658311 -0.0768,-0.34001 0.14186,-0.285361 1.54511,-1.274573 1.82321,-2.093282 0.40933,-0.714771 0.46106,-0.142289 0.75659,0.229081 0.33219,-0.315039 0.56863,-2.479978 -0.14275,-0.38143 -1.88705,-1.125962 -1.09204,-1.889381 -1.39616,-1.822745 -1.76795,-1.622931 -0.52016,-5.171322 0.23792,-0.476818 0.19092,-1.11651 -0.38894,-1.698664 0.58252,-4.657746 -0.40785,-2.434266 -1.81672,-0.726401 -1.41654,-3.074605 -1.31282,-0.983873 -1.82617,-3.457455 -0.2388,-1.622982 0.47642,-2.505308 2.03601,-2.289901 1.49989,-0.929983 1.47595,-0.171371 1.59979,-0.696366 2.02212,-1.761069 0.81777,0.0079 1.16593,0.588988 1.07667,1.197159 2.91023,1.229702 2.35077,-0.822999 0.50361,-1.901072 0.51395,-0.669256 0.85679,-0.640431 2.07531,-0.573977 0.50007,-0.701501 -11.21062,0.112877 0.71463,-0.353264 -0.0281,-0.487054 -0.23792,-0.277186 0.30264,-4.299513 1.75436,-3.354684 0.84555,-3.107119 0.0186,-0.793469 -0.6103,-0.878829 -1.19075,0.49777 -0.69394,-0.03765 -0.3981,-0.183212 -1.28503,-1.539787 0.0387,-1.118615 0.16225,-0.382366 0.5243,-0.105005 0.657,0.287403 0.82959,-1.174737 0.48263,-4.322508 -0.67798,-1.90272 0.14245,-0.401737 0.18117,0.01883 0.35643,0.547784 0.18767,0.03515 1.86725,-1.321144 -3e-4,-0.526051 0.82783,-2.06665 1.02938,-0.268284 0.78113,-0.909092 0.0857,-0.344476 -0.28608,-0.372944 0.0378,-0.220169 1.62047,-0.364163 1.15381,0.09502 1.16297,-1.110099 0.77137,-2.5837325 0.81984,-0.210579 0.61001,-0.6413772 0.49533,-1.5696045 0.84851,-1.109964 0.88693,-0.3450163 0.94398,-0.9379335 0.26658,-1.4069692 -0.0955,-0.4685894 0.90584,-1.8283821 1.48837,-0.4594208 2.40367,-2.5083336 1.06869,-1.4358452 0.47878,-1.4589709 0.13388,-0.9668319 -1.87021,-3.4466469 -0.80152,-0.737405 -0.41997,-1.120396 1.19312,-2.86324 0.94515,-0.967202 0.67769,-0.325622 0.27722,-0.421597 0.81157,-2.528483 0.11467,-0.756962 -0.29555,-2.001916 0.76399,-0.680338 0.87865,-1.254672 0.85029,-2.874299 0.21072,-2.501039 0.18176,-0.670482 0.56361,-0.574894 1.23212,-0.709097 1.01402,-3.383071 -0.0857,-0.881598 2.31294,-2.270831 -0.0567,-1.006717 -0.32451,-1.122121 -1.23153,-2.819168 -1.22297,-0.61422 -0.50656,0.08643 -1.90154,-0.585283 -0.1528,-0.134681 -0.0287,-0.508099 -0.31505,-0.738463 -1.22326,-1.150957 -3.06805,-1.975176 -2.00734,-1.687862 -0.60233,-0.930432 -0.67886,0.0768 -0.29614,-0.278254 -2.9e-4,-0.671098 0.15309,-0.278265 0.31534,-0.345423 1.10889,-0.191811 1.63496,0.565774 0.77432,0.642565 0.31565,0.796152 2.65724,0.633294 0.52578,-0.470038 0.42085,-0.728576 1.5392,-1.361943 1.46325,-1.131584 1.28118,-0.450382 2.4282,0.576303 0.74507,1.67888 0.73561,0.921235 1.11805,0.758366 0.21043,-0.0575 0.51632,-0.651767 0.89018,-1.659085 0.0961,-0.738294 0.65109,-1.505621 0.27751,-0.297189 1.40414,-0.603626 1.05184,-0.09655 1.58649,-0.682563 1.11982,-1.136388 0.58252,-1.017633 0.1528,-0.604555 -0.0293,-1.007205 -0.80477,-2.312241 -0.79413,-0.863317 -0.28757,-0.710076 0.11438,-0.498871 0.64045,-0.931423 1.67426,0.50771 0.45898,-0.02898 0.52607,-0.21165 1.19519,-1.228781 1.06189,0.402322 2.25708,-0.79751 0.71729,-0.940752 0.086,-0.614449 0.57365,-1.34403 0.96614,-0.48975 2.229,-0.499421 0.74625,-0.979131 1.20553,-0.998914 1.56935,-0.08612 0.63128,-0.681792 0.584,-1.50732 1.11982,-1.728411 1.35892,-1.103745 3.57993,-1.36305 0.21043,0.192025 0.33456,1.133631 -0.0576,0.748721 0.59316,0.970109 0.44952,0.08655 2.03897,-0.719278 1.70322,0.884389 0.4782,0.480203 -0.53642,0.930971 0.86861,3.572303 0.22846,2.236617 0.26776,0.547257 0.74536,1.200309 0.93777,-0.0378 1.78746,1.738202 1.44521,0.134801 0.29673,0.306973 1.52294,2.609326 0.9088,0.335488 0.26806,0.326246 1.12071,2.887314 -0.43002,0.806471 0.56302,0.77202 0.9085,0.0092 0.66114,-0.840029 1.12809,-0.777505 0.40194,1.016797 2.61085,0.278751 2.59104,-1.614198 1.40591,0.01889 0.47819,0.278346 0.52608,1.29261 0.92623,0.344656 1.27173,0.838321 1.08052,1.160671 0.29643,0.930594 0.0576,0.690892 0.49711,0.508292 0.31534,-0.134312 0.37298,-0.508295 0.31564,-0.940227 1.22386,-1.141335 0.62153,0.08605 1.12839,-0.565858 1.3598,-1.192628 1.37517,0.665797 0.72645,0.959621 2.23699,1.699183 0.99421,0.06758 1.58737,-0.29676 1.60659,-0.50748 0.6032,-0.52722 1.17952,-3.4629 1.01816,-0.670893 1.36039,-2.94619 -0.0585,-1.449086 1.11716,-2.764887 0.93688,-1.066315 0.71729,-0.249891 1.00367,-1.325519 0.48706,-1.63222 -1.0811,0.115931 -0.2394,-0.326372 -0.17259,-0.662418 0.61118,-1.843695 1.0415,-2.382018 2.18083,-3.054961 2.44978,-1.125278 1.15824,-0.374825 0.36352,0.0769 2.19294,24.519599 1.27498,27.679552 0.94959,15.465957 3.06865,58.222502 0.3378,2.035155 1.52324,28.909443 2.38239,35.791804 2.10665,37.24977 0.24028,7.95171 1.67456,33.69474 1.29567,40.39416 1.08258,24.08284 0.65581,10.90402 1.5989,39.57289 0.77256,15.43063 0.43711,16.08528 0.74891,17.75957 -0.008,0.15764 0.0582,5.34415 2.13738,62.74706 -0.009,0.11275 0.86388,21.31959 1.65565,51.26878 0.0559,8.21607 0.80507,23.36718 0.25476,19.16826 1.23124,16.14941 0.83285,15.51848 -0.0458,1.29944 0.0768,4.04754 0.009,0.41085 1.8445,31.00105 0.88339,22.3732 0.76605,0.69793 0.46637,-0.12726 1.97956,2.40325 1.36365,0.65502 0.40608,0.64073 0.24914,2.2626 0.50095,0.62026 0.42736,0.19574 0.30677,0.49424 -1.30453,4.13416 -0.0251,-0.0379 -0.17467,-0.3853 -1.84834,0.3641 -0.3248,0.85741 -0.0739,0.88591 0.0559,0.6152 0.2323,0.38198 1.28148,1.11047 0.34697,1.15893 -0.0497,1.52816 0.1262,0.31712 0.80417,0.6546 0.006,1.55409 -0.83078,2.47706 0.43445,0.55504 0.18649,0.63368 -0.94663,0.7176 -0.36263,3.54086 -0.81659,0.65229 -1.40975,2.6367 -0.84349,2.06818 0.17644,0.91243 0.4643,0.54012 -0.16668,0.75434 -1.85514,1.36974 0.38096,0.97747 0.59404,0.45614 1.45674,0.39993 0.43593,-0.1401 0.0322,-0.006 0.88811,1.45794 0.28904,1.26402 -1.04623,4.00665 -0.67266,1.2723 -0.18737,1.29014 0.32214,1.18098 1.23242,1.83914 0.17556,1.04367 -0.0307,0.87674 -2.2556,1.39605 -0.17141,0.8791 0.29643,1.40325 -0.79206,1.49635 -1.05835,1.0515 -1.01431,0.43459 -1.43221,1.0669 -1.15677,2.06206 -0.12915,0.97685 0.16905,3.38553 0.26895,0.78143 0.87186,0.93882 0.0745,0.62315 -0.0919,1.20883 -1.33409,0.54949 -0.10137,0.79065 0.0248,0.81015 0.72231,1.12896 -0.22254,1.0187 -0.002,1.71482 0.4906,1.30485 -0.009,0.27893 0.73177,0.92135 1.61101,2.67928 0.66557,1.76719 -0.20895,2.01461 2.25619,5.76813 0.94604,0.76766 1.06071,0.34135 0.76222,1.32961 0.39366,1.25355 1.03264,0.58267 0.44597,-0.57495 4.26029,-1.09508 1.29301,0.24665 0.15871,0.89394 0.16461,1.43876 0.25358,0.58913 2.01976,1.95054 2.22486,1.82363 0.29998,0.17103 1.00544,0.015 0.11202,4.00873 -0.24678,0.67544 0.78467,0.65268 0.70931,0.77165 0.86299,-0.20631 0.64281,0.16976 0.56863,1.42709 -0.29673,1.05342 -0.7433,0.76424 -1.0344,1.34001 0.41376,0.77149 2.86708,2.59851 1.80283,0.4466 1.09352,0.56797 0.82752,2.1516 0.26599,1.74551 0.3251,0.28414 2.69508,0.94616 2.76482,2.04685 -2.9e-4,0.004 0.54587,0.79345 0.45248,1.37173 0.0727,0.98249 0.41377,0.42853 0.92357,0.44435 0.90644,-0.65618 2.57509,1.00922 1.20848,1.25671 -0.14895,0.33719 -0.39663,0.2816 -0.0632,0.42442 0.76694,2.32161 0.41494,0.24748 1.07106,-0.22192 1.66333,0.51565 0.38746,0.12009 0.48469,0.15052 0.52075,0.23814 0.10344,0.0633 1.50551,0.92335 0.0272,0.20406 0.45543,0.97807 0.23023,2.4233 0.42382,-0.0122 0.64044,0.30299 0.65375,1.17586 -0.009,0.34313 -1.01933,2.9643 -0.86122,0.63751 -0.25713,0.43635 -1.1408,6.01079 0.11733,0.87206 0.36057,1.00216 -0.0585,0.85983 -0.40135,0.55659 -0.90201,0.23836 -1.01874,0.64453 -0.20688,0.32428 -0.11822,0.8107 1.03441,2.83722 0.38421,2.06691 -0.14778,0.52684 -0.6502,0.48629 -0.62064,1.25623 0.14777,1.05356 -0.38421,3.4436 -1.38876,4.45625 0.26599,1.45823 0.85708,1.98468 0.20688,2.3895 0.35465,1.3769 0.38421,0.80991 2.00971,1.82218 3.3373,2.23544 4.37465,4.19136 2.96314,2.36601 1.4133,2.01568 3.28055,0.93048 0.47287,0.36425 1.00515,1.29506 1.59594,3.48015 0.35466,0.36418 4.2854,1.05202 1.18218,1.57796 1.3004,0.0809 3.90149,-0.56643 3.36922,-0.12179 0.85708,0.76873 0.38421,0.84962 0.25919,4.51626 0.006,0.10153 -2.9055,1.44322 -0.16137,3.93928 0.18501,1.69402 -1.59181,3.93313 -1.2537,1.23396 -1.55604,0.6877 -0.58607,0.89144 -0.50509,1.20309 -0.16225,2.2233 -0.49622,1.45878 -0.32924,0.44704 -1.44314,0.41631 -1.01461,1.27071 -1.546,5.07573 -0.0502,1.12735 -0.22905,0.3992 -0.83787,0.17536 -0.6898,-0.21576 -0.46194,0.18263 -0.73118,0.75233 -0.67945,1.12885 -0.91413,2.61791 -0.19358,1.96002 -1.94409,2.94257 -0.0334,0.64905 0.66202,0.82311 -0.60764,1.25116 -1.14317,1.65898 -1.02584,0.16597 -0.38864,0.40543 -1.40295,2.02143 -0.42381,1.37848 -1.21706,1.85965 -0.97943,1.16353 -1.12603,3.97746 -0.2453,2.32046 0.14274,1.3569 -2.31057,1.76644 -0.81009,1.51814 -0.40105,1.30662 -0.18087,1.07413 -0.094,5.85484 -0.87954,1.05245 -0.5571,1.41826 -0.33367,2.57573 -0.0907,3.05455 -1.32197,0.16534 -2.66759,1.19445 -1.94498,1.58149 -3.32459,1.63582 -11.08619,-8.73919 -4.91551,-1.58113 -3.58142,-0.0137 -0.004,-0.0101 -3.76229,0.50944 -0.93688,0.29727 -0.26599,0.16134 -5.17204,3.2669 -5.11322,2.86323 -19.12207,3.99184 -3.9012,4.15244 -0.91619,1.89458 -1.80282,4.43355 -3.13278,10.79843 -20.18633,-6.08362 -5.08337,2.37722 -4.69917,2.73956 -0.62065,0.52371 -1.98015,2.3364 -3.45817,4.39023 1.27114,21.3758 -7.78289,-2.2869 -0.0266,-0.008 -0.0222,-0.008 -4.6111,-1.35824 -2.80768,0.48294 -3.57609,1.16706 -2.98531,2.49491 -3.6352,4.22428 -3.25809,5.88601 -4.51475,5.73824 -10.63992,-0.0804 -6.40387,-0.38765 -82.73491,-2.66792 -1.3004,-0.0402 -32.39263,-0.96485 -54.08299,-1.98974 -15.54302,-0.42637 -42.2996,-1.74657 -47.70926,-1.60709 z m 542.67468,-96.73175 -1.05303,-0.10299 -0.3384,-0.61635 -0.15102,-3.75373 0.75305,-0.20481 2.96964,0.0509 0.86594,0.30822 0.41259,0.82285 -0.45101,1.02762 z"
       class="state"
       fill="#ff7f50"
       stroke="#111111"
       stroke-width="0.5"
       id="path1"
       style="fill:none;stroke:#1b11d1;stroke-opacity:1;fill-opacity:1;stroke-width:5;stroke-dasharray:none" />
  </g>
</svg>
